<svg version="1.2" xmlns="http://www.w3.org/2000/svg" viewBox="0 0 1521 295" width="1521" height="295">
	<title>Omron_Logo-svg</title>
	<style>
		.s0 { fill: #005eb8 } 
	</style>
	<path id="Layer" fill-rule="evenodd" class="s0" d="m91 283.2c-17.8-7.4-33.9-18.3-47.5-31.9-13.6-13.6-24.4-29.7-31.9-47.4-7.4-17.7-11.4-36.7-11.6-56 0-59.4 35.8-113 90.7-135.7 54.9-22.8 118.1-10.2 160.1 31.8 42.1 42.1 54.6 105.3 31.9 160.2-22.8 54.9-76.3 90.7-135.8 90.7-19.2-0.3-38.2-4.2-55.9-11.7zm89-55.5c10.5-4.3 20-10.6 28.1-18.6 8-8.1 14.3-17.6 18.6-28.1 4.3-10.5 6.5-21.7 6.4-33.1 0-34.8-21-66.2-53.2-79.5-32.2-13.4-69.2-6-93.9 18.6-24.6 24.7-32 61.7-18.6 93.9 13.3 32.2 44.7 53.2 79.5 53.2 11.4 0.1 22.6-2.1 33.1-6.4z"/>
	<path id="Layer" fill-rule="evenodd" class="s0" d="m1109.1 294.9c-59.4 0-113-35.8-135.7-90.7-22.8-54.9-10.2-118.1 31.8-160.2 42.1-42 105.3-54.6 160.2-31.8 54.9 22.7 90.7 76.3 90.7 135.7 0 19.3-3.9 38.4-11.2 56.2-7.4 17.9-18.3 34.1-31.9 47.7-13.6 13.6-29.8 24.5-47.7 31.9-17.8 7.3-36.9 11.2-56.2 11.2zm0-60.8c34.9 0 66.3-21 79.6-53.2 13.3-32.2 6-69.2-18.7-93.9-24.6-24.6-61.6-32-93.8-18.6-32.2 13.3-53.2 44.7-53.2 79.5 0.1 11.3 2.4 22.5 6.8 32.9 4.4 10.4 10.7 19.8 18.7 27.8 8 8 17.4 14.3 27.8 18.7 10.4 4.3 21.6 6.6 32.8 6.8z"/>
	<g id="Layer">
		<path id="Layer" class="s0" d="m345.2 8.8q7.9-0.4 15.8-0.5 7.9-0.2 15.8-0.1 8 0.1 15.9 0.4h155.8c12.7-0.1 25.2 2.3 37 7.1 11.7 4.8 22.3 11.9 31.3 20.8 9 9 16 19.7 20.8 31.4 4.8 11.7 7.3 24.3 7.1 37v179.8h-60.8v-182.4c0-5.4-1.1-10.9-3.2-15.9-2.1-5.1-5.2-9.6-9.1-13.5-3.9-3.9-8.5-7-13.5-9.1-5.1-2.1-10.5-3.2-16-3.3h-24v226.8h-60.8v-226.8h-67.2v225.5h-60.8v-276.1q7.9-0.7 15.9-1.1z"/>
	</g>
	<g id="Layer">
		<path id="Layer" class="s0" d="m1303.1 8.8q7.4-0.4 14.8-0.5 7.5-0.2 14.9-0.1 7.5 0.1 14.9 0.4h76c12.7-0.1 25.3 2.3 37 7.1 11.7 4.8 22.4 11.9 31.4 20.8 8.9 9 16 19.7 20.8 31.4 4.8 11.7 7.2 24.3 7.1 37v179.8h-60.8v-182.4c0-5.4-1.2-10.9-3.3-15.9-2.1-5.1-5.2-9.6-9-13.5-3.9-3.9-8.5-7-13.6-9.1-5-2.1-10.4-3.2-15.9-3.3h-68.4v225.5h-60.8v-276.1q7.4-0.7 14.9-1.1z"/>
	</g>
	<g id="Layer">
		<path id="Layer" class="s0" d="m761.4 7.3h82.3c12.5-0.1 24.9 2.3 36.5 7 11.6 4.7 22.1 11.7 30.9 20.6 8.9 8.8 15.9 19.4 20.6 30.9 4.7 11.6 7.1 24 7 36.5 0 8.9-1.3 17.8-3.9 26.3-2.6 8.5-6.4 16.5-11.4 23.9-4.9 7.4-10.9 14.1-17.7 19.7-6.9 5.7-14.5 10.3-22.7 13.7l68.4 100.1h-76l-93.8-141.9h53.2c5.4-0.2 10.8-1.5 15.7-3.7 5-2.2 9.5-5.3 13.3-9.1 3.8-3.8 6.9-8.3 9.1-13.3 2.2-4.9 3.5-10.3 3.7-15.7 0-5.4-1.1-10.9-3.3-15.9-2.1-5.1-5.2-9.6-9-13.5-3.9-3.9-8.5-7-13.5-9.1-5.1-2.1-10.5-3.2-16-3.3h-74.7v225.5h-60.8v-276.1c21.5-1.3 41.8-2.6 62.1-2.6z"/>
	</g>
</svg>