<svg width="384" height="120" viewBox="0 0 384 120" fill="none" xmlns="http://www.w3.org/2000/svg">
<g clip-path="url(#clip0_953_10992)">
<path d="M204.027 119.469V86.4688H222.039V91.5417H210.939V99.6725H221.173V104.745H210.939V114.396H222.41V119.469H204.045H204.027Z" fill="#004FA2"/>
<path d="M226.935 119.469V86.4688H233.846V113.99H244.168V119.469H226.935Z" fill="#004FA2"/>
<path d="M247.156 119.469V86.4688H265.168V91.5417H254.05V99.6725H264.284V104.745H254.05V114.396H265.539V119.469H247.139H247.156Z" fill="#004FA2"/>
<path d="M269.71 102.96C269.71 94.2285 269.71 85.9209 281.075 85.9209C288.11 85.9209 290.956 89.8095 290.691 96.8975H283.921C283.921 92.5139 283.143 90.8701 281.075 90.8701C277.187 90.8701 276.692 94.5289 276.692 102.978C276.692 111.427 277.187 115.086 281.075 115.086C284.275 115.086 284.133 110.967 284.239 108.369H291.062C291.062 117.189 287.527 120.017 281.093 120.017C269.728 120.017 269.728 111.604 269.728 102.96H269.71Z" fill="#004FA2"/>
<path d="M315.084 86.4512V91.9306H307.412V119.452H300.501V91.9306H292.83V86.4512H315.084Z" fill="#004FA2"/>
<path d="M325.053 91.5419H328.111C330.302 91.5419 331.646 92.7261 331.646 95.8724C331.646 97.9758 330.868 100.716 328.111 100.716H325.053V91.5419ZM325.053 105.788H326.82C332.123 105.788 331.752 109.129 331.752 113.053C331.752 115.21 331.575 117.454 332.477 119.452H339.246C338.61 118.073 338.469 111.851 338.469 109.765C338.469 103.826 333.997 103.455 332.477 103.261V103.172C336.966 102.448 338.61 99.2838 338.61 95.077C338.61 89.4561 335.587 86.4336 330.886 86.4336H318.142V119.434H325.053V105.771V105.788Z" fill="#004FA2"/>
<path d="M343.7 119.469V86.4688H350.594V119.469H343.7Z" fill="#004FA2"/>
<path d="M356.091 102.96C356.091 94.2285 356.091 85.9209 367.474 85.9209C374.509 85.9209 377.355 89.8095 377.072 96.8798H370.32C370.32 92.4962 369.542 90.8524 367.474 90.8524C363.603 90.8524 363.09 94.5113 363.09 102.96C363.09 111.409 363.603 115.068 367.474 115.068C370.673 115.068 370.549 110.95 370.638 108.351H377.443C377.443 117.171 373.926 120 367.474 120C356.091 120 356.091 111.586 356.091 102.943V102.96Z" fill="#004FA2"/>
<path d="M50.9743 9.54436H91.0097C96.9134 9.54436 99.3349 5.88551 100.342 3.09275L101.385 0.264648H34.6597C28.1904 0.264648 22.5696 4.89567 20.095 11.3296L18.5042 15.6955C16.6305 20.7507 18.4335 26.7428 22.7993 29.9067L22.9231 29.9951C23.0822 30.1011 23.2412 30.2072 23.4003 30.3133L35.19 37.8254L50.1259 47.3703L53.608 49.5797C59.2465 52.9027 55.3579 57.1979 50.9743 57.1979H10.939C5.03532 57.1979 2.61375 60.8568 1.60624 63.6495L0.581055 66.4776H67.3243C73.6168 66.4776 79.6089 61.5992 81.8714 55.4127L83.745 50.2514C85.3535 45.7264 84.2929 40.0702 79.874 37.2775L48.3407 17.1626C43.2501 14.1577 45.1944 9.54436 50.9743 9.54436Z" fill="#004FA2"/>
<path d="M179.299 0H119.237C113.917 0 111.425 2.96951 110.24 5.60318L108.968 9.08529H157.434C160.351 9.08529 161.305 10.8705 160.581 12.9032L145.415 54.5647C144.39 56.1555 142.463 57.3752 140.024 57.3752H119.732C116.798 57.3752 115.879 55.6253 116.586 53.6103L122.384 37.6668C123.126 35.6341 125.371 33.8489 128.305 33.8489H138.186C142.976 33.7958 145.433 31.9576 146.723 28.935L148.42 24.7636H110.205C103.63 24.7636 99.2639 30.2784 97.7968 34.3261L90.1256 55.3778C87.757 62.0946 91.4866 66.4958 97.2312 66.4958H155.985C162.525 66.4958 167.951 63.1728 170.179 57.4635L186.493 12.6558C189.516 4.10075 185.079 0.0176757 179.299 0.0176757V0Z" fill="#004FA2"/>
<path d="M342.074 57.41C339.158 57.41 338.221 55.6601 338.946 53.6451L358.371 0.264648H337.797C334.969 0.264648 331.84 2.56248 330.815 5.39059C330.815 5.39059 330.815 5.39059 330.815 5.40826L312.609 55.4127C310.258 62.1118 313.97 66.4776 319.697 66.4776H373.29C378.168 66.4776 380.66 63.9854 381.951 61.5461L383.453 57.41H342.092H342.074Z" fill="#004FA2"/>
<path d="M320.086 0.264648H299.529C296.701 0.264648 293.573 2.56248 292.547 5.39059L270.312 66.4776H295.994L320.086 0.264648Z" fill="#004FA2"/>
<path d="M261.279 0.264648C258.451 0.264648 255.322 2.56248 254.297 5.39059L240.281 43.9235L228.296 4.48913C227.943 1.80243 225.751 0.264648 223.471 0.264648H207.174C204.328 0.264648 201.217 2.56248 200.174 5.39059L177.938 66.4776H203.657L219.423 23.1546L231.566 63.0132C232.22 65.1873 234.129 66.4776 236.162 66.4776H257.744L281.836 0.264648H261.279Z" fill="#004FA2"/>
</g>
<defs>
<clipPath id="clip0_953_10992">
<rect width="382.837" height="120" fill="white" transform="translate(0.581055)"/>
</clipPath>
</defs>
</svg>
